<svg xmlns="http://www.w3.org/2000/svg" viewBox="0 0 32 32" width="32" height="32">
  <defs>
    <linearGradient id="leafGradient" x1="0%" y1="0%" x2="100%" y2="100%">
      <stop offset="0%" style="stop-color:#ff6b35;stop-opacity:1" />
      <stop offset="30%" style="stop-color:#f7931e;stop-opacity:1" />
      <stop offset="70%" style="stop-color:#dc143c;stop-opacity:1" />
      <stop offset="100%" style="stop-color:#8b0000;stop-opacity:1" />
    </linearGradient>
  </defs>
  
  <!-- 紅葉の葉の形 -->
  <path d="M16 2 
           C18 4, 20 6, 22 10
           C24 8, 26 10, 28 14
           C26 16, 24 18, 20 20
           C22 22, 20 24, 18 26
           C16 24, 14 22, 12 20
           C8 18, 6 16, 4 14
           C6 10, 8 8, 10 10
           C12 6, 14 4, 16 2 Z" 
        fill="url(#leafGradient)" 
        stroke="#654321" 
        stroke-width="0.5"/>
  
  <!-- 葉脈 -->
  <path d="M16 2 L16 20" stroke="#654321" stroke-width="1" opacity="0.7"/>
  <path d="M16 8 L10 12" stroke="#654321" stroke-width="0.5" opacity="0.5"/>
  <path d="M16 8 L22 12" stroke="#654321" stroke-width="0.5" opacity="0.5"/>
  <path d="M16 14 L12 18" stroke="#654321" stroke-width="0.5" opacity="0.5"/>
  <path d="M16 14 L20 18" stroke="#654321" stroke-width="0.5" opacity="0.5"/>
</svg>
